<?xml version="1.0" encoding="UTF-8"?>
<svg width="35px" height="39px" viewBox="0 0 35 39" version="1.1" xmlns="http://www.w3.org/2000/svg" xmlns:xlink="http://www.w3.org/1999/xlink">
    <!-- Generator: Sketch 58 (84663) - https://sketch.com -->
    <title>icon</title>
    <desc>Created with Sketch.</desc>
    <g id="Venues" stroke="none" stroke-width="1" fill="none" fill-rule="evenodd">
        <g id="Venue---Single" transform="translate(-1057.000000, -5789.000000)" fill="#FFFFFF">
            <g id="Venue-Specs" transform="translate(0.000000, 5547.000000)">
                <g id="Table" transform="translate(81.000000, 220.000000)">
                    <g id="icon" transform="translate(976.000000, 22.000000)">
                        <g id="Group-8">
                            <g id="Group-7">
                                <path d="M7.07683721,4.73898915 C5.7884031,4.73898915 4.7395969,5.78779535 4.7395969,7.07709767 C4.7395969,8.3664 5.7884031,9.4152062 7.07683721,9.4152062 C8.36613953,9.4152062 9.41494574,8.3664 9.41494574,7.07709767 C9.41494574,5.78779535 8.36613953,4.73898915 7.07683721,4.73898915 M7.07683721,11.1516403 C4.83075969,11.1516403 3.00316279,9.32404341 3.00316279,7.07709767 C3.00316279,4.83015194 4.83075969,3.00255504 7.07683721,3.00255504 C9.32378295,3.00255504 11.1513798,4.83015194 11.1513798,7.07709767 C11.1513798,9.32404341 9.32378295,11.1516403 7.07683721,11.1516403" id="Fill-11"></path>
                                <path d="M10.7785674,7.07701085 C10.7785674,6.14541395 11.5347845,5.3891969 12.4663814,5.3891969 C13.3988465,5.3891969 14.1541953,6.14541395 14.1541953,7.07701085 C14.1541953,8.00947597 13.3988465,8.76482481 12.4663814,8.76482481 C11.5347845,8.76482481 10.7785674,8.00947597 10.7785674,7.07701085" id="Fill-16"></path>
                                <path d="M6.89624806,10.4186047 C7.82871318,10.4186047 8.58406202,11.1748217 8.58406202,12.1064186 C8.58406202,13.0388837 7.82871318,13.7942326 6.89624806,13.7942326 C5.96465116,13.7942326 5.20930233,13.0388837 5.20930233,12.1064186 C5.20930233,11.1748217 5.96465116,10.4186047 6.89624806,10.4186047" id="Fill-21"></path>
                                <path d="M-3.90798505e-14,7.07701085 C-3.90798505e-14,6.14541395 0.756217054,5.3891969 1.68781395,5.3891969 C2.62027907,5.3891969 3.37562791,6.14541395 3.37562791,7.07701085 C3.37562791,8.00947597 2.62027907,8.76482481 1.68781395,8.76482481 C0.756217054,8.76482481 -3.90798505e-14,8.00947597 -3.90798505e-14,7.07701085" id="Fill-16"></path>
                                <path d="M6.89624806,4.156675e-13 C7.82871318,4.156675e-13 8.58406202,0.756217054 8.58406202,1.68781395 C8.58406202,2.62027907 7.82871318,3.37562791 6.89624806,3.37562791 C5.96465116,3.37562791 5.20930233,2.62027907 5.20930233,1.68781395 C5.20930233,0.756217054 5.96465116,4.156675e-13 6.89624806,4.156675e-13" id="Fill-21-Copy"></path>
                            </g>
                            <g id="Group-7-Copy-2" transform="translate(20.837209, 0.000000)">
                                <path d="M7.07683721,4.73898915 C5.7884031,4.73898915 4.7395969,5.78779535 4.7395969,7.07709767 C4.7395969,8.3664 5.7884031,9.4152062 7.07683721,9.4152062 C8.36613953,9.4152062 9.41494574,8.3664 9.41494574,7.07709767 C9.41494574,5.78779535 8.36613953,4.73898915 7.07683721,4.73898915 M7.07683721,11.1516403 C4.83075969,11.1516403 3.00316279,9.32404341 3.00316279,7.07709767 C3.00316279,4.83015194 4.83075969,3.00255504 7.07683721,3.00255504 C9.32378295,3.00255504 11.1513798,4.83015194 11.1513798,7.07709767 C11.1513798,9.32404341 9.32378295,11.1516403 7.07683721,11.1516403" id="Fill-11"></path>
                                <path d="M10.7785674,7.07701085 C10.7785674,6.14541395 11.5347845,5.3891969 12.4663814,5.3891969 C13.3988465,5.3891969 14.1541953,6.14541395 14.1541953,7.07701085 C14.1541953,8.00947597 13.3988465,8.76482481 12.4663814,8.76482481 C11.5347845,8.76482481 10.7785674,8.00947597 10.7785674,7.07701085" id="Fill-16"></path>
                                <path d="M6.89624806,10.4186047 C7.82871318,10.4186047 8.58406202,11.1748217 8.58406202,12.1064186 C8.58406202,13.0388837 7.82871318,13.7942326 6.89624806,13.7942326 C5.96465116,13.7942326 5.20930233,13.0388837 5.20930233,12.1064186 C5.20930233,11.1748217 5.96465116,10.4186047 6.89624806,10.4186047" id="Fill-21"></path>
                                <path d="M-3.90798505e-14,7.07701085 C-3.90798505e-14,6.14541395 0.756217054,5.3891969 1.68781395,5.3891969 C2.62027907,5.3891969 3.37562791,6.14541395 3.37562791,7.07701085 C3.37562791,8.00947597 2.62027907,8.76482481 1.68781395,8.76482481 C0.756217054,8.76482481 -3.90798505e-14,8.00947597 -3.90798505e-14,7.07701085" id="Fill-16"></path>
                                <path d="M6.89624806,4.156675e-13 C7.82871318,4.156675e-13 8.58406202,0.756217054 8.58406202,1.68781395 C8.58406202,2.62027907 7.82871318,3.37562791 6.89624806,3.37562791 C5.96465116,3.37562791 5.20930233,2.62027907 5.20930233,1.68781395 C5.20930233,0.756217054 5.96465116,4.156675e-13 6.89624806,4.156675e-13" id="Fill-21-Copy"></path>
                            </g>
                        </g>
                        <g id="Group-9" transform="translate(0.000000, 25.178295)">
                            <g id="Group-7-Copy-3" transform="translate(20.837209, 0.000000)">
                                <path d="M7.07683721,4.73898915 C5.7884031,4.73898915 4.7395969,5.78779535 4.7395969,7.07709767 C4.7395969,8.3664 5.7884031,9.4152062 7.07683721,9.4152062 C8.36613953,9.4152062 9.41494574,8.3664 9.41494574,7.07709767 C9.41494574,5.78779535 8.36613953,4.73898915 7.07683721,4.73898915 M7.07683721,11.1516403 C4.83075969,11.1516403 3.00316279,9.32404341 3.00316279,7.07709767 C3.00316279,4.83015194 4.83075969,3.00255504 7.07683721,3.00255504 C9.32378295,3.00255504 11.1513798,4.83015194 11.1513798,7.07709767 C11.1513798,9.32404341 9.32378295,11.1516403 7.07683721,11.1516403" id="Fill-11"></path>
                                <path d="M10.7785674,7.07701085 C10.7785674,6.14541395 11.5347845,5.3891969 12.4663814,5.3891969 C13.3988465,5.3891969 14.1541953,6.14541395 14.1541953,7.07701085 C14.1541953,8.00947597 13.3988465,8.76482481 12.4663814,8.76482481 C11.5347845,8.76482481 10.7785674,8.00947597 10.7785674,7.07701085" id="Fill-16"></path>
                                <path d="M6.89624806,10.4186047 C7.82871318,10.4186047 8.58406202,11.1748217 8.58406202,12.1064186 C8.58406202,13.0388837 7.82871318,13.7942326 6.89624806,13.7942326 C5.96465116,13.7942326 5.20930233,13.0388837 5.20930233,12.1064186 C5.20930233,11.1748217 5.96465116,10.4186047 6.89624806,10.4186047" id="Fill-21"></path>
                                <path d="M-3.90798505e-14,7.07701085 C-3.90798505e-14,6.14541395 0.756217054,5.3891969 1.68781395,5.3891969 C2.62027907,5.3891969 3.37562791,6.14541395 3.37562791,7.07701085 C3.37562791,8.00947597 2.62027907,8.76482481 1.68781395,8.76482481 C0.756217054,8.76482481 -3.90798505e-14,8.00947597 -3.90798505e-14,7.07701085" id="Fill-16"></path>
                                <path d="M6.89624806,4.156675e-13 C7.82871318,4.156675e-13 8.58406202,0.756217054 8.58406202,1.68781395 C8.58406202,2.62027907 7.82871318,3.37562791 6.89624806,3.37562791 C5.96465116,3.37562791 5.20930233,2.62027907 5.20930233,1.68781395 C5.20930233,0.756217054 5.96465116,4.156675e-13 6.89624806,4.156675e-13" id="Fill-21-Copy"></path>
                            </g>
                            <g id="Group-7-Copy-4">
                                <path d="M7.07683721,4.73898915 C5.7884031,4.73898915 4.7395969,5.78779535 4.7395969,7.07709767 C4.7395969,8.3664 5.7884031,9.4152062 7.07683721,9.4152062 C8.36613953,9.4152062 9.41494574,8.3664 9.41494574,7.07709767 C9.41494574,5.78779535 8.36613953,4.73898915 7.07683721,4.73898915 M7.07683721,11.1516403 C4.83075969,11.1516403 3.00316279,9.32404341 3.00316279,7.07709767 C3.00316279,4.83015194 4.83075969,3.00255504 7.07683721,3.00255504 C9.32378295,3.00255504 11.1513798,4.83015194 11.1513798,7.07709767 C11.1513798,9.32404341 9.32378295,11.1516403 7.07683721,11.1516403" id="Fill-11"></path>
                                <path d="M10.7785674,7.07701085 C10.7785674,6.14541395 11.5347845,5.3891969 12.4663814,5.3891969 C13.3988465,5.3891969 14.1541953,6.14541395 14.1541953,7.07701085 C14.1541953,8.00947597 13.3988465,8.76482481 12.4663814,8.76482481 C11.5347845,8.76482481 10.7785674,8.00947597 10.7785674,7.07701085" id="Fill-16"></path>
                                <path d="M6.89624806,10.4186047 C7.82871318,10.4186047 8.58406202,11.1748217 8.58406202,12.1064186 C8.58406202,13.0388837 7.82871318,13.7942326 6.89624806,13.7942326 C5.96465116,13.7942326 5.20930233,13.0388837 5.20930233,12.1064186 C5.20930233,11.1748217 5.96465116,10.4186047 6.89624806,10.4186047" id="Fill-21"></path>
                                <path d="M-3.90798505e-14,7.07701085 C-3.90798505e-14,6.14541395 0.756217054,5.3891969 1.68781395,5.3891969 C2.62027907,5.3891969 3.37562791,6.14541395 3.37562791,7.07701085 C3.37562791,8.00947597 2.62027907,8.76482481 1.68781395,8.76482481 C0.756217054,8.76482481 -3.90798505e-14,8.00947597 -3.90798505e-14,7.07701085" id="Fill-16"></path>
                                <path d="M6.89624806,4.156675e-13 C7.82871318,4.156675e-13 8.58406202,0.756217054 8.58406202,1.68781395 C8.58406202,2.62027907 7.82871318,3.37562791 6.89624806,3.37562791 C5.96465116,3.37562791 5.20930233,2.62027907 5.20930233,1.68781395 C5.20930233,0.756217054 5.96465116,4.156675e-13 6.89624806,4.156675e-13" id="Fill-21-Copy"></path>
                            </g>
                        </g>
                        <g id="Group-7-Copy-5" transform="translate(10.418605, 13.023256)">
                            <path d="M7.07683721,4.73898915 C5.7884031,4.73898915 4.7395969,5.78779535 4.7395969,7.07709767 C4.7395969,8.3664 5.7884031,9.4152062 7.07683721,9.4152062 C8.36613953,9.4152062 9.41494574,8.3664 9.41494574,7.07709767 C9.41494574,5.78779535 8.36613953,4.73898915 7.07683721,4.73898915 M7.07683721,11.1516403 C4.83075969,11.1516403 3.00316279,9.32404341 3.00316279,7.07709767 C3.00316279,4.83015194 4.83075969,3.00255504 7.07683721,3.00255504 C9.32378295,3.00255504 11.1513798,4.83015194 11.1513798,7.07709767 C11.1513798,9.32404341 9.32378295,11.1516403 7.07683721,11.1516403" id="Fill-11"></path>
                            <path d="M10.7785674,7.07701085 C10.7785674,6.14541395 11.5347845,5.3891969 12.4663814,5.3891969 C13.3988465,5.3891969 14.1541953,6.14541395 14.1541953,7.07701085 C14.1541953,8.00947597 13.3988465,8.76482481 12.4663814,8.76482481 C11.5347845,8.76482481 10.7785674,8.00947597 10.7785674,7.07701085" id="Fill-16"></path>
                            <path d="M6.89624806,10.4186047 C7.82871318,10.4186047 8.58406202,11.1748217 8.58406202,12.1064186 C8.58406202,13.0388837 7.82871318,13.7942326 6.89624806,13.7942326 C5.96465116,13.7942326 5.20930233,13.0388837 5.20930233,12.1064186 C5.20930233,11.1748217 5.96465116,10.4186047 6.89624806,10.4186047" id="Fill-21"></path>
                            <path d="M-3.90798505e-14,7.07701085 C-3.90798505e-14,6.14541395 0.756217054,5.3891969 1.68781395,5.3891969 C2.62027907,5.3891969 3.37562791,6.14541395 3.37562791,7.07701085 C3.37562791,8.00947597 2.62027907,8.76482481 1.68781395,8.76482481 C0.756217054,8.76482481 -3.90798505e-14,8.00947597 -3.90798505e-14,7.07701085" id="Fill-16"></path>
                            <path d="M6.89624806,4.156675e-13 C7.82871318,4.156675e-13 8.58406202,0.756217054 8.58406202,1.68781395 C8.58406202,2.62027907 7.82871318,3.37562791 6.89624806,3.37562791 C5.96465116,3.37562791 5.20930233,2.62027907 5.20930233,1.68781395 C5.20930233,0.756217054 5.96465116,4.156675e-13 6.89624806,4.156675e-13" id="Fill-21-Copy"></path>
                        </g>
                    </g>
                </g>
            </g>
        </g>
    </g>
</svg>