<?xml version="1.0" encoding="UTF-8"?>
<svg width="39px" height="40px" viewBox="0 0 39 40" version="1.1" xmlns="http://www.w3.org/2000/svg" xmlns:xlink="http://www.w3.org/1999/xlink">
    <!-- Generator: Sketch 58 (84663) - https://sketch.com -->
    <title>Classroom</title>
    <desc>Created with Sketch.</desc>
    <defs>
        <polygon id="path-1" points="0 38.961039 37.1272727 38.961039 37.1272727 0.212987013 0 0.212987013"></polygon>
    </defs>
    <g id="Venues" stroke="none" stroke-width="1" fill="none" fill-rule="evenodd">
        <g id="Venue---Single" transform="translate(-695.000000, -5786.000000)">
            <g id="Venue-Specs" transform="translate(0.000000, 5547.000000)">
                <g id="Table" transform="translate(81.000000, 220.000000)">
                    <g id="Classroom" transform="translate(614.000000, 19.000000)">
                        <path d="M0,6.94285714 L13.5887446,6.94285714 L13.5887446,0.865800866 L0,0.865800866 L0,6.94285714 Z M1.73160173,5.21125541 L11.8571429,5.21125541 L11.8571429,2.5974026 L1.73160173,2.5974026 L1.73160173,5.21125541 Z" id="Fill-1" fill="#FFFFFF"></path>
                        <g id="Group-22" transform="translate(0.000000, 0.652814)">
                            <path d="M1.12744589,8.46683983 C1.12744589,7.5369697 1.88155844,6.78372294 2.81056277,6.78372294 C3.7404329,6.78372294 4.49367965,7.5369697 4.49367965,8.46683983 C4.49367965,9.39670996 3.7404329,10.1499567 2.81056277,10.1499567 C1.88155844,10.1499567 1.12744589,9.39670996 1.12744589,8.46683983" id="Fill-2" fill="#FFFFFF"></path>
                            <path d="M9.09515152,8.46683983 C9.09515152,7.5369697 9.84839827,6.78372294 10.7782684,6.78372294 C11.7072727,6.78372294 12.4613853,7.5369697 12.4613853,8.46683983 C12.4613853,9.39670996 11.7072727,10.1499567 10.7782684,10.1499567 C9.84839827,10.1499567 9.09515152,9.39670996 9.09515152,8.46683983" id="Fill-4" fill="#FFFFFF"></path>
                            <mask id="mask-2" fill="white">
                                <use xlink:href="#path-1"></use>
                            </mask>
                            <g id="Clip-7"></g>
                            <path d="M1.73160173,18.9645022 L11.8571429,18.9645022 L11.8571429,16.3506494 L1.73160173,16.3506494 L1.73160173,18.9645022 Z M0,20.6961039 L13.5887446,20.6961039 L13.5887446,14.6190476 L0,14.6190476 L0,20.6961039 Z" id="Fill-6" fill="#FFFFFF"></path>
                            <path d="M1.12744589,22.8726407 C1.12744589,21.9427706 1.88155844,21.1895238 2.81056277,21.1895238 C3.7404329,21.1895238 4.49367965,21.9427706 4.49367965,22.8726407 C4.49367965,23.801645 3.7404329,24.5557576 2.81056277,24.5557576 C1.88155844,24.5557576 1.12744589,23.801645 1.12744589,22.8726407" id="Fill-8" fill="#FFFFFF"></path>
                            <path d="M9.09515152,22.8726407 C9.09515152,21.9427706 9.84839827,21.1895238 10.7782684,21.1895238 C11.7072727,21.1895238 12.4613853,21.9427706 12.4613853,22.8726407 C12.4613853,23.801645 11.7072727,24.5557576 10.7782684,24.5557576 C9.84839827,24.5557576 9.09515152,23.801645 9.09515152,22.8726407" id="Fill-9" fill="#FFFFFF"></path>
                            <path d="M1.73160173,33.369697 L11.8571429,33.369697 L11.8571429,30.7558442 L1.73160173,30.7558442 L1.73160173,33.369697 Z M0,35.1012987 L13.5887446,35.1012987 L13.5887446,29.0242424 L0,29.0242424 L0,35.1012987 Z" id="Fill-10" fill="#FFFFFF"></path>
                            <path d="M1.12744589,37.2779221 C1.12744589,36.3489177 1.88155844,35.5948052 2.81056277,35.5948052 C3.7404329,35.5948052 4.49367965,36.3489177 4.49367965,37.2779221 C4.49367965,38.2077922 3.7404329,38.961039 2.81056277,38.961039 C1.88155844,38.961039 1.12744589,38.2077922 1.12744589,37.2779221" id="Fill-11" fill="#FFFFFF"></path>
                            <path d="M9.09515152,37.2779221 C9.09515152,36.3489177 9.84839827,35.5948052 10.7782684,35.5948052 C11.7072727,35.5948052 12.4613853,36.3489177 12.4613853,37.2779221 C12.4613853,38.2077922 11.7072727,38.961039 10.7782684,38.961039 C9.84839827,38.961039 9.09515152,38.2077922 9.09515152,37.2779221" id="Fill-12" fill="#FFFFFF"></path>
                            <g id="Group-10" transform="translate(24.538528, 0.212987)" fill="#FFFFFF">
                                <path d="M1.73160173,4.34545455 L11.8571429,4.34545455 L11.8571429,1.73160173 L1.73160173,1.73160173 L1.73160173,4.34545455 Z M-5.68434189e-14,6.07705628 L13.5887446,6.07705628 L13.5887446,-2.28705943e-13 L-5.68434189e-14,-2.28705943e-13 L-5.68434189e-14,6.07705628 Z" id="Fill-13"></path>
                                <path d="M1.12753247,8.25385281 C1.12753247,7.32398268 1.88077922,6.57073593 2.81064935,6.57073593 C3.73965368,6.57073593 4.49376623,7.32398268 4.49376623,8.25385281 C4.49376623,9.18372294 3.73965368,9.9369697 2.81064935,9.9369697 C1.88077922,9.9369697 1.12753247,9.18372294 1.12753247,8.25385281" id="Fill-14"></path>
                                <path d="M9.09471861,8.25385281 C9.09471861,7.32398268 9.84883117,6.57073593 10.7778355,6.57073593 C11.7077056,6.57073593 12.4609524,7.32398268 12.4609524,8.25385281 C12.4609524,9.18372294 11.7077056,9.9369697 10.7778355,9.9369697 C9.84883117,9.9369697 9.09471861,9.18372294 9.09471861,8.25385281" id="Fill-15"></path>
                            </g>
                            <g id="Group-5" transform="translate(24.538528, 14.619048)" fill="#FFFFFF">
                                <path d="M1.73160173,4.34545455 L11.8571429,4.34545455 L11.8571429,1.73160173 L1.73160173,1.73160173 L1.73160173,4.34545455 Z M-5.68434189e-14,6.07705628 L13.5887446,6.07705628 L13.5887446,-2.304823e-13 L-5.68434189e-14,-2.304823e-13 L-5.68434189e-14,6.07705628 Z" id="Fill-16"></path>
                                <path d="M1.12753247,8.25359307 C1.12753247,7.32372294 1.88077922,6.57047619 2.81064935,6.57047619 C3.73965368,6.57047619 4.49376623,7.32372294 4.49376623,8.25359307 C4.49376623,9.1825974 3.73965368,9.93670996 2.81064935,9.93670996 C1.88077922,9.93670996 1.12753247,9.1825974 1.12753247,8.25359307" id="Fill-17"></path>
                                <path d="M9.09471861,8.25359307 C9.09471861,7.32372294 9.84883117,6.57047619 10.7778355,6.57047619 C11.7077056,6.57047619 12.4609524,7.32372294 12.4609524,8.25359307 C12.4609524,9.1825974 11.7077056,9.93670996 10.7778355,9.93670996 C9.84883117,9.93670996 9.09471861,9.1825974 9.09471861,8.25359307" id="Fill-18"></path>
                            </g>
                            <g id="Group-4" transform="translate(24.538528, 29.024242)" fill="#FFFFFF">
                                <path d="M1.73160173,4.34545455 L11.8571429,4.34545455 L11.8571429,1.73160173 L1.73160173,1.73160173 L1.73160173,4.34545455 Z M-5.68434189e-14,6.07705628 L13.5887446,6.07705628 L13.5887446,-2.29594121e-13 L-5.68434189e-14,-2.29594121e-13 L-5.68434189e-14,6.07705628 Z" id="Fill-19"></path>
                                <path d="M1.12753247,8.25367965 C1.12753247,7.32467532 1.88077922,6.57056277 2.81064935,6.57056277 C3.73965368,6.57056277 4.49376623,7.32467532 4.49376623,8.25367965 C4.49376623,9.18354978 3.73965368,9.93679654 2.81064935,9.93679654 C1.88077922,9.93679654 1.12753247,9.18354978 1.12753247,8.25367965" id="Fill-20"></path>
                                <path d="M9.09471861,8.25367965 C9.09471861,7.32467532 9.84883117,6.57056277 10.7778355,6.57056277 C11.7077056,6.57056277 12.4609524,7.32467532 12.4609524,8.25367965 C12.4609524,9.18354978 11.7077056,9.93679654 10.7778355,9.93679654 C9.84883117,9.93679654 9.09471861,9.18354978 9.09471861,8.25367965" id="Fill-21"></path>
                            </g>
                        </g>
                    </g>
                </g>
            </g>
        </g>
    </g>
</svg>