<?xml version="1.0" encoding="UTF-8"?>
<svg width="9px" height="13px" viewBox="0 0 9 13" version="1.1" xmlns="http://www.w3.org/2000/svg" xmlns:xlink="http://www.w3.org/1999/xlink">
    <!-- Generator: Sketch 57.1 (83088) - https://sketch.com -->
    <title>Combined Shape</title>
    <desc>Created with Sketch.</desc>
    <g id="Homepage" stroke="none" stroke-width="1" fill="none" fill-rule="evenodd">
        <g id="Home" transform="translate(-1278.000000, -957.000000)" fill="#FFFFFF" fill-rule="nonzero">
            <g id="Hero-Section" transform="translate(-300.000000, -158.000000)">
                <g id="Hero-Image">
                    <g id="Carousel-Controls---White" transform="translate(1500.000000, 1099.927461)">
                        <g id="Pause---White" transform="translate(61.806087, 0.000000)">
                            <path d="M17.6533569,15.8901554 C18.1504132,15.8901554 18.5533569,16.2930992 18.5533569,16.7901554 L18.5533569,26.2067358 C18.5533569,26.703792 18.1504132,27.1067358 17.6533569,27.1067358 L17.4008414,27.1067358 C16.9037851,27.1067358 16.5008414,26.703792 16.5008414,26.2067358 L16.5008414,16.7901554 C16.5008414,16.2930992 16.9037851,15.8901554 17.4008414,15.8901554 L17.6533569,15.8901554 Z M24.1107093,15.8901554 C24.6077655,15.8901554 25.0107093,16.2930992 25.0107093,16.7901554 L25.0107093,26.2067358 C25.0107093,26.703792 24.6077655,27.1067358 24.1107093,27.1067358 L23.8581937,27.1067358 C23.3611374,27.1067358 22.9581937,26.703792 22.9581937,26.2067358 L22.9581937,16.7901554 C22.9581937,16.2930992 23.3611374,15.8901554 23.8581937,15.8901554 L24.1107093,15.8901554 Z" id="Combined-Shape"></path>
                        </g>
                    </g>
                </g>
            </g>
        </g>
    </g>
</svg>