<?xml version="1.0" encoding="UTF-8"?>
<svg width="41px" height="40px" viewBox="0 0 41 40" version="1.1" xmlns="http://www.w3.org/2000/svg" xmlns:xlink="http://www.w3.org/1999/xlink">
    <!-- Generator: Sketch 58 (84663) - https://sketch.com -->
    <title>Group 3</title>
    <desc>Created with Sketch.</desc>
    <g id="Venues" stroke="none" stroke-width="1" fill="none" fill-rule="evenodd">
        <g id="Venue---Single" transform="translate(-1231.000000, -5786.000000)" fill="#FFFFFF">
            <g id="Venue-Specs" transform="translate(0.000000, 5547.000000)">
                <g id="Table" transform="translate(81.000000, 220.000000)">
                    <g id="Group-3" transform="translate(1150.000000, 19.000000)">
                        <path d="M34.2869333,11.4292444 C33.5393778,11.4292444 32.8176,11.2559111 32.1589333,10.9359111 L34.9447111,7.00257778 C35.1216,6.7528 35.1429333,6.42746667 35.0033778,6.15635556 C34.8629333,5.88524444 34.5829333,5.71457778 34.2780444,5.71457778 L29.4620444,5.71457778 C29.8531556,3.40168889 31.8647111,1.6328 34.2869333,1.6328 C36.9882667,1.6328 39.1847111,3.82924444 39.1847111,6.53057778 C39.1847111,9.23191111 36.9873778,11.4292444 34.2869333,11.4292444 L34.2869333,11.4292444 Z M27.4949333,14.6941333 L17.3616,14.6941333 L12.1571556,7.34746667 L27.8087111,7.34746667 C27.9189333,8.20968889 28.1953778,9.04613333 28.6318222,9.79991111 L30.0451556,8.98124444 C29.7527111,8.47724444 29.5624889,7.9208 29.4647111,7.34746667 L32.6993778,7.34746667 L27.4949333,14.6941333 Z M20.3998222,24.7101333 L14.4620444,16.3261333 L16.5171556,16.3261333 L19.7429333,20.8799111 L21.0753778,19.9359111 L18.5180444,16.3270222 L26.3384889,16.3270222 L20.3998222,24.7101333 Z M8.09937778,7.34746667 L10.1562667,7.34746667 L15.3598222,14.6941333 L13.3047111,14.6941333 L8.09937778,7.34746667 Z M34.2869333,-8.88888889e-05 C30.9624889,-8.88888889e-05 28.2167111,2.49857778 27.8122667,5.71457778 L11.0007111,5.71457778 L7.19715556,0.3448 C7.04426667,0.127911111 6.79537778,-8.88888889e-05 6.53048889,-8.88888889e-05 L-0.000177777778,-8.88888889e-05 L-0.000177777778,1.6328 L6.10826667,1.6328 L8.99893333,5.71457778 L6.5216,5.71457778 C6.21671111,5.71457778 5.93671111,5.88524444 5.79626667,6.15635556 C5.65671111,6.42746667 5.67804444,6.7528 5.85493333,7.00257778 L19.5838222,26.3839111 L19.5838222,37.8665778 L12.3536,37.8665778 L12.3536,39.9999111 L13.8682667,39.9999111 L13.8691556,39.9999111 L26.9313778,39.9999111 L28.4629333,39.9999111 L28.4629333,37.8665778 L21.2158222,37.8665778 L21.2158222,26.3839111 L31.2051556,12.2808 C32.1491556,12.7883556 33.1953778,13.0612444 34.2860444,13.0612444 C37.8869333,13.0612444 40.8167111,10.1314667 40.8167111,6.53057778 C40.8167111,2.92968889 37.8878222,-8.88888889e-05 34.2869333,-8.88888889e-05 L34.2869333,-8.88888889e-05 Z" id="Fill-1"></path>
                    </g>
                </g>
            </g>
        </g>
    </g>
</svg>