<?xml version="1.0" encoding="UTF-8"?>
<svg width="36px" height="39px" viewBox="0 0 36 39" version="1.1" xmlns="http://www.w3.org/2000/svg" xmlns:xlink="http://www.w3.org/1999/xlink">
    <!-- Generator: Sketch 58 (84663) - https://sketch.com -->
    <title>Theater</title>
    <desc>Created with Sketch.</desc>
    <g id="Venues" stroke="none" stroke-width="1" fill="none" fill-rule="evenodd">
        <g id="Venue---Single" transform="translate(-888.000000, -5786.000000)" fill="#FFFFFF">
            <g id="Venue-Specs" transform="translate(0.000000, 5547.000000)">
                <g id="Table" transform="translate(81.000000, 220.000000)">
                    <g id="Theater" transform="translate(807.000000, 19.000000)">
                        <path d="M24.7917643,1.17239551e-13 L24.7917643,6.0940155 L11.1650977,6.0940155 L11.1650977,1.17239551e-13 L24.7917643,1.17239551e-13 Z M23.0561984,1.73643411 L12.9024,1.73643411 L12.9024,4.3575814 L23.0561984,4.3575814 L23.0561984,1.73643411 Z" id="Combined-Shape"></path>
                        <g id="Group-6" transform="translate(0.000000, 27.566933)">
                            <path d="M8.54871729e-14,1.68781395 C8.54871729e-14,0.755348837 0.755348837,4.13891144e-13 1.68781395,4.13891144e-13 C2.61941085,4.13891144e-13 3.37475969,0.755348837 3.37475969,1.68781395 C3.37475969,2.61941085 2.61941085,3.37562791 1.68781395,3.37562791 C0.755348837,3.37562791 8.54871729e-14,2.61941085 8.54871729e-14,1.68781395" id="Fill-20"></path>
                            <path d="M6.51631628,1.68781395 C6.51631628,0.755348837 7.27166512,4.13891144e-13 8.20413023,4.13891144e-13 C9.13659535,4.13891144e-13 9.89194419,0.755348837 9.89194419,1.68781395 C9.89194419,2.61941085 9.13659535,3.37562791 8.20413023,3.37562791 C7.27166512,3.37562791 6.51631628,2.61941085 6.51631628,1.68781395" id="Fill-22"></path>
                            <path d="M13.0329798,1.68781395 C13.0329798,0.755348837 13.7883287,4.13891144e-13 14.7199256,4.13891144e-13 C15.6523907,4.13891144e-13 16.4077395,0.755348837 16.4077395,1.68781395 C16.4077395,2.61941085 15.6523907,3.37562791 14.7199256,3.37562791 C13.7883287,3.37562791 13.0329798,2.61941085 13.0329798,1.68781395" id="Fill-24"></path>
                            <path d="M19.5492961,1.68781395 C19.5492961,0.755348837 20.304645,4.13891144e-13 21.2371101,4.13891144e-13 C22.1695752,4.13891144e-13 22.924924,0.755348837 22.924924,1.68781395 C22.924924,2.61941085 22.1695752,3.37562791 21.2371101,3.37562791 C20.304645,3.37562791 19.5492961,2.61941085 19.5492961,1.68781395" id="Fill-26"></path>
                            <path d="M26.0659597,1.68781395 C26.0659597,0.755348837 26.8213085,4.13891144e-13 27.7529054,4.13891144e-13 C28.6853705,4.13891144e-13 29.4407194,0.755348837 29.4407194,1.68781395 C29.4407194,2.61941085 28.6853705,3.37562791 27.7529054,3.37562791 C26.8213085,3.37562791 26.0659597,2.61941085 26.0659597,1.68781395" id="Fill-28"></path>
                            <path d="M32.582276,1.68781395 C32.582276,0.755348837 33.3376248,4.13891144e-13 34.2700899,4.13891144e-13 C35.202555,4.13891144e-13 35.9579039,0.755348837 35.9579039,1.68781395 C35.9579039,2.61941085 35.202555,3.37562791 34.2700899,3.37562791 C33.3376248,3.37562791 32.582276,2.61941085 32.582276,1.68781395" id="Fill-30"></path>
                        </g>
                        <path d="M8.54871729e-14,21.1766822 C8.54871729e-14,20.2442171 0.755348837,19.4888682 1.68781395,19.4888682 C2.61941085,19.4888682 3.37475969,20.2442171 3.37475969,21.1766822 C3.37475969,22.1082791 2.61941085,22.8644961 1.68781395,22.8644961 C0.755348837,22.8644961 8.54871729e-14,22.1082791 8.54871729e-14,21.1766822" id="Fill-32"></path>
                        <path d="M6.51631628,21.1766822 C6.51631628,20.2442171 7.27166512,19.4888682 8.20413023,19.4888682 C9.13659535,19.4888682 9.89194419,20.2442171 9.89194419,21.1766822 C9.89194419,22.1082791 9.13659535,22.8644961 8.20413023,22.8644961 C7.27166512,22.8644961 6.51631628,22.1082791 6.51631628,21.1766822" id="Fill-34"></path>
                        <path d="M13.0329798,21.1766822 C13.0329798,20.2442171 13.7883287,19.4888682 14.7199256,19.4888682 C15.6523907,19.4888682 16.4077395,20.2442171 16.4077395,21.1766822 C16.4077395,22.1082791 15.6523907,22.8644961 14.7199256,22.8644961 C13.7883287,22.8644961 13.0329798,22.1082791 13.0329798,21.1766822" id="Fill-36"></path>
                        <path d="M19.5492961,21.1766822 C19.5492961,20.2442171 20.304645,19.4888682 21.2371101,19.4888682 C22.1695752,19.4888682 22.924924,20.2442171 22.924924,21.1766822 C22.924924,22.1082791 22.1695752,22.8644961 21.2371101,22.8644961 C20.304645,22.8644961 19.5492961,22.1082791 19.5492961,21.1766822" id="Fill-38"></path>
                        <path d="M26.0659597,21.1766822 C26.0659597,20.2442171 26.8213085,19.4888682 27.7529054,19.4888682 C28.6853705,19.4888682 29.4407194,20.2442171 29.4407194,21.1766822 C29.4407194,22.1082791 28.6853705,22.8644961 27.7529054,22.8644961 C26.8213085,22.8644961 26.0659597,22.1082791 26.0659597,21.1766822" id="Fill-40"></path>
                        <path d="M32.582276,21.1766822 C32.582276,20.2442171 33.3376248,19.4888682 34.2700899,19.4888682 C35.202555,19.4888682 35.9579039,20.2442171 35.9579039,21.1766822 C35.9579039,22.1082791 35.202555,22.8644961 34.2700899,22.8644961 C33.3376248,22.8644961 32.582276,22.1082791 32.582276,21.1766822" id="Fill-42"></path>
                        <path d="M8.54871729e-14,13.0986171 C8.54871729e-14,12.1661519 0.755348837,11.4108031 1.68781395,11.4108031 C2.61941085,11.4108031 3.37475969,12.1661519 3.37475969,13.0986171 C3.37475969,14.030214 2.61941085,14.786431 1.68781395,14.786431 C0.755348837,14.786431 8.54871729e-14,14.030214 8.54871729e-14,13.0986171" id="Fill-44"></path>
                        <path d="M6.51631628,13.0986171 C6.51631628,12.1661519 7.27166512,11.4108031 8.20413023,11.4108031 C9.13659535,11.4108031 9.89194419,12.1661519 9.89194419,13.0986171 C9.89194419,14.030214 9.13659535,14.786431 8.20413023,14.786431 C7.27166512,14.786431 6.51631628,14.030214 6.51631628,13.0986171" id="Fill-46"></path>
                        <path d="M13.0329798,13.0986171 C13.0329798,12.1661519 13.7883287,11.4108031 14.7199256,11.4108031 C15.6523907,11.4108031 16.4077395,12.1661519 16.4077395,13.0986171 C16.4077395,14.030214 15.6523907,14.786431 14.7199256,14.786431 C13.7883287,14.786431 13.0329798,14.030214 13.0329798,13.0986171" id="Fill-48"></path>
                        <path d="M19.5492961,13.0986171 C19.5492961,12.1661519 20.304645,11.4108031 21.2371101,11.4108031 C22.1695752,11.4108031 22.924924,12.1661519 22.924924,13.0986171 C22.924924,14.030214 22.1695752,14.786431 21.2371101,14.786431 C20.304645,14.786431 19.5492961,14.030214 19.5492961,13.0986171" id="Fill-50"></path>
                        <path d="M26.0659597,13.0986171 C26.0659597,12.1661519 26.8213085,11.4108031 27.7529054,11.4108031 C28.6853705,11.4108031 29.4407194,12.1661519 29.4407194,13.0986171 C29.4407194,14.030214 28.6853705,14.786431 27.7529054,14.786431 C26.8213085,14.786431 26.0659597,14.030214 26.0659597,13.0986171" id="Fill-52"></path>
                        <path d="M32.582276,13.0986171 C32.582276,12.1661519 33.3376248,11.4108031 34.2700899,11.4108031 C35.202555,11.4108031 35.9579039,12.1661519 35.9579039,13.0986171 C35.9579039,14.030214 35.202555,14.786431 34.2700899,14.786431 C33.3376248,14.786431 32.582276,14.030214 32.582276,13.0986171" id="Fill-54"></path>
                        <g id="Group-6-Copy" transform="translate(0.000000, 35.596378)">
                            <path d="M8.54871729e-14,1.68781395 C8.54871729e-14,0.755348837 0.755348837,4.13891144e-13 1.68781395,4.13891144e-13 C2.61941085,4.13891144e-13 3.37475969,0.755348837 3.37475969,1.68781395 C3.37475969,2.61941085 2.61941085,3.37562791 1.68781395,3.37562791 C0.755348837,3.37562791 8.54871729e-14,2.61941085 8.54871729e-14,1.68781395" id="Fill-20"></path>
                            <path d="M6.51631628,1.68781395 C6.51631628,0.755348837 7.27166512,4.13891144e-13 8.20413023,4.13891144e-13 C9.13659535,4.13891144e-13 9.89194419,0.755348837 9.89194419,1.68781395 C9.89194419,2.61941085 9.13659535,3.37562791 8.20413023,3.37562791 C7.27166512,3.37562791 6.51631628,2.61941085 6.51631628,1.68781395" id="Fill-22"></path>
                            <path d="M13.0329798,1.68781395 C13.0329798,0.755348837 13.7883287,4.13891144e-13 14.7199256,4.13891144e-13 C15.6523907,4.13891144e-13 16.4077395,0.755348837 16.4077395,1.68781395 C16.4077395,2.61941085 15.6523907,3.37562791 14.7199256,3.37562791 C13.7883287,3.37562791 13.0329798,2.61941085 13.0329798,1.68781395" id="Fill-24"></path>
                            <path d="M19.5492961,1.68781395 C19.5492961,0.755348837 20.304645,4.13891144e-13 21.2371101,4.13891144e-13 C22.1695752,4.13891144e-13 22.924924,0.755348837 22.924924,1.68781395 C22.924924,2.61941085 22.1695752,3.37562791 21.2371101,3.37562791 C20.304645,3.37562791 19.5492961,2.61941085 19.5492961,1.68781395" id="Fill-26"></path>
                            <path d="M26.0659597,1.68781395 C26.0659597,0.755348837 26.8213085,4.13891144e-13 27.7529054,4.13891144e-13 C28.6853705,4.13891144e-13 29.4407194,0.755348837 29.4407194,1.68781395 C29.4407194,2.61941085 28.6853705,3.37562791 27.7529054,3.37562791 C26.8213085,3.37562791 26.0659597,2.61941085 26.0659597,1.68781395" id="Fill-28"></path>
                            <path d="M32.582276,1.68781395 C32.582276,0.755348837 33.3376248,4.13891144e-13 34.2700899,4.13891144e-13 C35.202555,4.13891144e-13 35.9579039,0.755348837 35.9579039,1.68781395 C35.9579039,2.61941085 35.202555,3.37562791 34.2700899,3.37562791 C33.3376248,3.37562791 32.582276,2.61941085 32.582276,1.68781395" id="Fill-30"></path>
                        </g>
                    </g>
                </g>
            </g>
        </g>
    </g>
</svg>