<?xml version="1.0" encoding="utf-8"?>
<!-- Generator: Adobe Illustrator 26.5.0, SVG Export Plug-In . SVG Version: 6.00 Build 0)  -->
<svg version="1.1" id="Layer_1" xmlns="http://www.w3.org/2000/svg" xmlns:xlink="http://www.w3.org/1999/xlink" x="0px" y="0px"
	 viewBox="0 0 826.2 319.2" style="enable-background:new 0 0 826.2 319.2;" xml:space="preserve">
<style type="text/css">
	.st0{fill:#FFFFFF;}
</style>
<g>
	<g>
		<path class="st0" d="M216,88.3c0-11-8.3-16.9-23.9-16.9H179v61.4h6.4v-25.9c1.7,0.2,4.2,0.4,6.7,0.4
			C206.7,107.3,216,99.8,216,88.3z M185.5,73.5h6.3c11.1,0,17.3,5.6,17.3,15.8c0,10.3-6.2,15.9-17.4,15.9c-2.4,0-4.5-0.2-6.1-0.6
			V73.5z"/>
		<rect x="234.7" y="71.4" class="st0" width="6.4" height="61.4"/>
		<path class="st0" d="M300.6,128l-0.8,0c-7.1,1.6-16.1,2.5-24.7,2.5h-5V102h4.4c10.6,0,15.6,0.7,17.7,1.1h0.6v-4.3l-0.6,0
			c-3.1,0.6-9,0.9-17.7,0.9h-4.4v-26h4.9c7.4,0,15.2,0.8,23.2,2.3h0.7l-1.2-4.6h-34.1v61.4H299L300.6,128z"/>
		<path class="st0" d="M355.1,87.3c0-10.4-8.4-15.9-24.2-15.9h-12.8v61.4h6.4v-27.3h6.9c2.6,0,3.3,0.5,4.5,1.8l23.4,26.8h1v-8.3
			l-19.2-22C347.2,101.3,355.1,97,355.1,87.3z M324.5,73.5h6.3c11.2,0,17.4,5.1,17.4,14.3c0,9-6.6,15.6-15.6,15.6
			c-1.8,0-6-0.2-8.1-0.5V73.5z"/>
		<path class="st0" d="M423,131.7c-6.5,0-14-3-18-7.2l-0.5-0.5l-1.5,5l0.3,0.1c4.3,2.2,12.1,4.6,19.1,4.6c11.7,0,19.9-7.1,19.9-17.3
			c0-10.4-8.3-14.3-15.6-17.8l-4.2-1.9c-7.6-3.6-12.9-6.8-12.9-13.6c0-6.3,5-10.6,12.4-10.6c5.7,0,11.7,2.5,16.1,6.8l0.5,0.5
			l1.2-4.6l-0.3-0.2c-3.5-2.1-10-4.6-16.9-4.6c-10.9,0-18.5,6.4-18.5,15.5c0,9.7,9,14,15.6,17.1l4.2,1.9c6.6,3.1,13.1,6.9,13.1,14.7
			C437,126.6,431.1,131.7,423,131.7z"/>
		<rect x="461.4" y="71.4" class="st0" width="6.4" height="61.4"/>
		<path class="st0" d="M533.1,72l0.5-0.6h-6.5l-0.1,0.2c-1.9,4.9-6.1,12-12.4,21.1l-3.2,4.4l-20-25.7h-8.2l24,30.6l-5.7,8.2
			c-7.8,10.8-13.3,18-16.6,22l-0.5,0.6h7.3l0.1-0.2c1.7-4.4,5.1-11.7,11.7-21l5.4-7.6l23.4,29.9l0.1,0.1h0.9v-9L513,99.1l3.6-5
			C522.8,85.2,528.7,77.3,533.1,72z"/>
		<path class="st0" d="M571.4,132.8V73.7h1.9c5.1,0,10.3,0.8,16.7,2.6l0.8,0l-1.3-4.9h-42.7l-1.2,4.9h0.5l0.3,0
			c6.5-1.8,11.6-2.6,16.6-2.6h1.9v59.1H571.4z"/>
		<path class="st0" d="M643.3,71.6c-1.8,5.7-5.6,13.5-11.6,23.9l-4.1,7.2l-17.7-31.1l-0.1-0.2h-7.5l20,34.5v26.9h6.4v-27.3l5-8.8v0
			c5-8.8,9.6-16.6,14.5-24.7l0.4-0.6h-5.2L643.3,71.6z"/>
		<path class="st0" d="M176.9,226.2c-5,7.7-12.6,12-21.3,12c-14.6,0-24.8-12-24.8-29.2c0-16.5,9.9-28.4,23.4-28.4
			c7.9,0,14.7,3.9,19.7,11.2l0.3,0.4l3.9-3.5l-0.2-0.3c-5.2-6.3-13.6-10-23.1-10c-18.2,0-31,13.2-31,32.1
			c0,18.4,12.1,31.3,29.5,31.3c10.8,0,19.3-4.9,25.5-14.7l0.2-0.3l-1.7-1L176.9,226.2z"/>
		<path class="st0" d="M224.1,178.5c-18.5,0-32,13.5-32,32.2c0,18.4,12.7,31.2,31,31.2c18.5,0,32-13.5,32-32.2
			C255,191.3,242.3,178.5,224.1,178.5z M247.9,210.6c0,17.2-9.9,29.3-24,29.3c-14.3,0-24.7-12.6-24.7-29.9
			c0-17.2,9.9-29.3,24.2-29.3C237.6,180.6,247.9,193.2,247.9,210.6z"/>
		<path class="st0" d="M282.5,238.6H281v-59.1h-6.4v61.4h27.7l1.7-4.9l-0.8,0C296,237.8,289.1,238.6,282.5,238.6z"/>
		<path class="st0" d="M328.9,238.6h-1.5v-59.1h-6.4v61.4h27.7l1.7-4.9l-0.8,0C342.4,237.8,335.5,238.6,328.9,238.6z"/>
		<path class="st0" d="M378.8,238.6h-5v-28.5h4.4c10.6,0,15.6,0.7,17.7,1.1h0.6v-4.3l-0.6,0c-3.1,0.6-9,0.9-17.7,0.9h-4.4v-26h4.9
			c7.4,0,15.2,0.8,23.2,2.3h0.7l-1.2-4.6h-34.1v61.4h35.2l1.7-4.8l-0.8,0C396.3,237.7,387.3,238.6,378.8,238.6z"/>
		<path class="st0" d="M469.5,226.2c-5,7.7-12.6,12-21.3,12c-14.6,0-24.8-12-24.8-29.2c0-16.5,9.9-28.4,23.4-28.4
			c7.9,0,14.7,3.9,19.7,11.2l0.3,0.4l3.9-3.5l-0.2-0.3c-5.2-6.3-13.6-10-23.1-10c-18.2,0-31,13.2-31,32.1
			c0,18.4,12.1,31.3,29.5,31.3c10.8,0,19.3-4.9,25.5-14.7l0.2-0.3l-1.7-1L469.5,226.2z"/>
		<path class="st0" d="M483.1,179.5l-1.2,4.9h0.5l0.3,0c6.5-1.8,11.6-2.6,16.6-2.6h1.9v59.1h6.5v-59.1h1.9c5.1,0,10.3,0.8,16.7,2.6
			l0.8,0l-1.3-4.9H483.1z"/>
		<rect x="544.1" y="179.5" class="st0" width="6.4" height="61.4"/>
		<path class="st0" d="M602,178.5c-18.5,0-32,13.5-32,32.2c0,18.4,12.7,31.2,31,31.2c18.5,0,32-13.5,32-32.2
			C633,191.3,620.3,178.5,602,178.5z M625.9,210.6c0,17.2-9.9,29.3-24,29.3c-14.3,0-24.7-12.6-24.7-29.9c0-17.2,9.9-29.3,24.2-29.3
			C615.6,180.6,625.9,193.2,625.9,210.6z"/>
		<path class="st0" d="M690,179.5l0.1,0.4c0.8,6.1,1.1,13.8,1.1,26.4v22.7l-34-49.4l-0.1-0.2h-7.3v0.8l3.2,4.6V214
			c0,11.6-0.3,19.8-1.1,26.4l0,0.4h4.7l-0.1-0.4c-0.8-6.1-1.1-13.8-1.1-26.4v-25.7l37,53.4l0.1,0.2h1.2v-35.5
			c0-11.6,0.3-19.8,1.1-26.4l0-0.4H690z"/>
		<g>
			<g>
				<path class="st0" d="M373.5,22.8V4.6h-7V1.3h17.7v3.4h-7v18.2H373.5z"/>
			</g>
			<g>
				<path class="st0" d="M411.5,22.8v-9.3h-11.1v9.3h-3.7V1.2h3.7v8.9h11.1V1.2h3.7v21.6H411.5z"/>
			</g>
			<g>
				<path class="st0" d="M429.9,22.8V1.3h13.2v3.4h-9.5v5.3l7.7,0v3.4h-7.7v6.2l10.5,0v3.4H429.9z"/>
			</g>
		</g>
		<g>
			<path class="st0" d="M1.1,314v-18.4h4.3c4.5,0,8.1,1.3,8.1,5.6c0,3.8-2.3,6.2-7.4,6.2H4.3v6.5H1.1z M5.7,304.7
				c3.7,0,4.5-1.7,4.5-3.3c0-1.5-1-2.9-3.3-2.9H4.3v6.2H5.7z"/>
		</g>
		<g>
			<path class="st0" d="M24.5,314v-18.4h3.2V314H24.5z"/>
		</g>
		<g>
			<path class="st0" d="M40.2,314v-18.3h11.3v2.9h-8.1v4.5l6.5,0v2.9h-6.5v5.3l8.9,0v2.9H40.2z"/>
		</g>
		<g>
			<path class="st0" d="M74.8,314l-8.1-7.3v7.3h-3.2v-18.4h4.3c4.7,0,8.1,1.4,8.1,5.6c0,2.8-1.4,5.1-4.8,5.8l8.2,7H74.8z
				 M68.2,304.7c3.1,0,4.4-1.3,4.4-3.3c0-1.8-1.2-2.9-3.7-2.9h-2.2v6.2H68.2z"/>
		</g>
		<g>
			<path class="st0" d="M103.9,309.4c0.9,1,2.8,2.2,5,2.2c2,0,3.5-0.9,3.5-2.5c0-4.2-9-3.1-9-9c0-3.2,3-4.9,6.3-4.9
				c2.7,0,4.5,1.1,5.5,2.1l-1.5,2.2c-1-0.9-2.3-1.6-3.9-1.6c-1.6,0-2.9,0.7-2.9,2.1c0,3.8,9,2.4,9,9.1c0,2.6-2.5,5.2-7,5.2
				c-2.9,0-5.7-1.5-6.7-2.8L103.9,309.4z"/>
		</g>
		<g>
			<path class="st0" d="M127.1,314v-18.4h3.2V314H127.1z"/>
		</g>
		<g>
			<path class="st0" d="M155,314l-5.2-7l-5.2,7h-4l7.5-9.4l-6.9-8.9h4l4.8,6.4l4.8-6.4h4l-7.1,8.9l7.3,9.4H155z"/>
		</g>
		<g>
			<path class="st0" d="M173.3,314v-15.5h-5.9v-2.9h15v2.9h-5.9V314H173.3z"/>
		</g>
		<g>
			<path class="st0" d="M197.1,314l0-7.6l-7.1-10.7h3.9l4.8,7.8l4.9-7.8h3.8l-7.2,10.7v7.6H197.1z"/>
		</g>
		<g>
			<path class="st0" d="M232.4,317.3V293h3v24.3H232.4z"/>
			<path class="st0" d="M236.1,317.9h-4.4v-25.6h4.4V317.9z M233.1,316.6h1.6v-22.9h-1.6V316.6z"/>
		</g>
		<g>
			<path class="st0" d="M267.3,314v-15.5h-5.9v-2.9h15v2.9h-5.9V314H267.3z"/>
		</g>
		<g>
			<path class="st0" d="M299.5,314v-7.9h-9.5v7.9h-3.2v-18.4h3.2v7.6h9.5v-7.6h3.2V314H299.5z"/>
		</g>
		<g>
			<path class="st0" d="M315.2,314v-18.3h11.3v2.9h-8.1v4.5l6.5,0v2.9h-6.5v5.3l8.9,0v2.9H315.2z"/>
		</g>
		<g>
			<path class="st0" d="M353.8,314v-18.3h3.2v15.5l8.3,0v2.9H353.8z"/>
		</g>
		<g>
			<path class="st0" d="M375.8,314v-18.4h3.2V314H375.8z"/>
		</g>
		<g>
			<path class="st0" d="M401.9,307.1v-2.9h8.3c0,7.1-4.7,10.2-9.4,10.2c-5.7,0-10.5-4.2-10.5-9.5c0-5.4,4.5-9.7,10.4-9.7
				c4.7,0,7.3,2.3,7.4,2.4l-1.6,2.3c-0.1-0.1-2.1-1.9-5.5-1.9c-4.8,0-7.3,3-7.3,6.9c0,3.4,3,6.6,7.1,6.6c3.3,0,5.8-2,6.1-4.5H401.9z
				"/>
		</g>
		<g>
			<path class="st0" d="M433.8,314v-7.9h-9.5v7.9h-3.2v-18.4h3.2v7.6h9.5v-7.6h3.2V314H433.8z"/>
		</g>
		<g>
			<path class="st0" d="M453.5,314v-15.5h-5.9v-2.9h15v2.9h-5.9V314H453.5z"/>
		</g>
		<g>
			<path class="st0" d="M485.8,314v-7.9h-9.5v7.9h-3.2v-18.4h3.2v7.6h9.5v-7.6h3.2V314H485.8z"/>
		</g>
		<g>
			<path class="st0" d="M510.5,314.4c-5.8,0-10.2-4.3-10.2-9.6s4.4-9.6,10.2-9.6c5.8,0,10.1,4.2,10.1,9.7
				C520.6,310.1,516,314.4,510.5,314.4z M510.5,298.1c-4,0-6.9,2.9-6.9,6.7c0,3.7,2.9,6.8,6.8,6.8c4,0,7-2.9,7-6.7
				C517.3,301,514.4,298.1,510.5,298.1z"/>
		</g>
		<g>
			<path class="st0" d="M544.2,295.6h3.2v16.2c-1.4,1.5-4,2.5-7.9,2.5c-4.9,0-7.8-2.4-7.8-7.1v-11.6h3.2v9.6c0,4.6,1.1,6.3,4.9,6.3
				c1.7,0,3.3-0.3,4.3-1.1V295.6z"/>
		</g>
		<g>
			<path class="st0" d="M559.8,309.4c0.9,1,2.8,2.2,5,2.2c2,0,3.5-0.9,3.5-2.5c0-4.2-9-3.1-9-9c0-3.2,3-4.9,6.3-4.9
				c2.7,0,4.5,1.1,5.5,2.1l-1.5,2.2c-1-0.9-2.3-1.6-3.9-1.6c-1.6,0-2.9,0.7-2.9,2.1c0,3.8,9,2.4,9,9.1c0,2.6-2.5,5.2-7,5.2
				c-2.9,0-5.7-1.5-6.7-2.8L559.8,309.4z"/>
		</g>
		<g>
			<path class="st0" d="M583.1,314v-18.3h11.3v2.9h-8.1v4.5l6.5,0v2.9h-6.5v5.3l8.9,0v2.9H583.1z"/>
		</g>
		<g>
			<path class="st0" d="M621.8,317.3V293h3v24.3H621.8z"/>
			<path class="st0" d="M625.5,317.9h-4.3v-25.6h4.3V317.9z M622.5,316.6h1.6v-22.9h-1.6V316.6z"/>
		</g>
		<g>
			<path class="st0" d="M669.3,312c-1.5,1.3-3.7,2.4-6.9,2.4c-6.2,0-10.8-4.4-10.8-9.6s4.3-9.6,10.5-9.6c3.9,0,6.4,1.9,7.1,2.6
				l-1.7,2.2c-1.3-1.2-3-1.9-5.5-1.9c-4.1,0-7,2.9-7,6.9c0,3.7,3.3,6.6,7.4,6.6c2.8,0,4.5-0.9,5.5-1.7L669.3,312z"/>
		</g>
		<g>
			<path class="st0" d="M692.7,295.6h3.2v16.2c-1.4,1.5-4,2.5-7.9,2.5c-4.9,0-7.8-2.4-7.8-7.1v-11.6h3.2v9.6c0,4.6,1.1,6.3,4.9,6.3
				c1.7,0,3.3-0.3,4.3-1.1V295.6z"/>
		</g>
		<g>
			<path class="st0" d="M719.6,314l-8.1-7.3v7.3h-3.2v-18.4h4.3c4.6,0,8.1,1.4,8.1,5.6c0,2.8-1.4,5.1-4.8,5.8l8.2,7H719.6z
				 M712.9,304.7c3.1,0,4.4-1.3,4.4-3.3c0-1.8-1.2-2.9-3.7-2.9h-2.2v6.2H712.9z"/>
		</g>
		<g>
			<path class="st0" d="M744.8,314l-8.1-7.3v7.3h-3.2v-18.4h4.3c4.6,0,8.1,1.4,8.1,5.6c0,2.8-1.4,5.1-4.8,5.8l8.2,7H744.8z
				 M738.1,304.7c3.1,0,4.4-1.3,4.4-3.3c0-1.8-1.2-2.9-3.7-2.9h-2.2v6.2H738.1z"/>
		</g>
		<g>
			<path class="st0" d="M758.7,314v-18.3h11.3v2.9h-8.1v4.5l6.5,0v2.9h-6.5v5.3l8.9,0v2.9H758.7z"/>
		</g>
		<g>
			<path class="st0" d="M785.1,302.1l0.1,11.9H782l0-18.9l14.4,12.6l-0.1-12.1h3.2l0,19L785.1,302.1z"/>
		</g>
		<g>
			<path class="st0" d="M816,314v-15.5h-5.9v-2.9h15v2.9h-5.9V314H816z"/>
		</g>
	</g>
</g>
</svg>
