<?xml version="1.0" standalone="no"?>
<!DOCTYPE svg PUBLIC "-//W3C//DTD SVG 20010904//EN"
 "http://www.w3.org/TR/2001/REC-SVG-20010904/DTD/svg10.dtd">
<svg version="1.0" xmlns="http://www.w3.org/2000/svg"
 width="1334.000000pt" height="1334.000000pt" viewBox="0 0 1334.000000 1334.000000"
 preserveAspectRatio="xMidYMid meet">
<metadata>
Created by potrace 1.14, written by Peter Selinger 2001-2017
</metadata>
<g transform="translate(0.000000,1334.000000) scale(0.100000,-0.100000)"
fill="#000000" stroke="none">
<path d="M0 6670 l0 -6670 6670 0 6670 0 0 6670 0 6670 -6670 0 -6670 0 0
-6670z m7053 5250 c243 -24 366 -103 384 -247 14 -119 -48 -217 -173 -274 -38
-18 -71 -34 -73 -35 -2 -2 59 -88 135 -191 76 -103 138 -197 138 -208 0 -91
-5 -125 -18 -125 -7 0 -96 112 -197 250 -199 271 -176 250 -291 265 -44 6 -48
4 -52 -17 -4 -20 -37 -399 -36 -420 0 -5 -25 -8 -55 -8 l-55 0 0 33 c0 18 18
244 40 502 22 258 40 475 40 483 0 10 12 12 53 8 28 -4 100 -11 160 -16z
m-727 -35 c7 -19 14 -37 14 -40 0 -3 -66 -5 -147 -5 -116 0 -320 -15 -330 -23
-3 -4 57 -410 62 -415 7 -7 224 25 298 44 32 8 62 12 67 9 6 -3 10 -22 10 -41
l0 -34 -77 0 c-79 0 -280 -23 -289 -33 -6 -6 54 -448 61 -456 9 -8 257 40 370
72 66 20 121 34 122 33 1 -1 -3 -20 -8 -43 -9 -35 -15 -42 -42 -47 -71 -12
-549 -77 -552 -74 -3 5 -136 972 -135 994 0 19 16 22 253 56 326 46 305 46
323 3z m-1072 -222 c76 -240 287 -925 284 -927 -6 -6 -101 -36 -104 -33 -1 1
-220 699 -300 959 -3 12 6 20 38 31 63 22 65 21 82 -30z m3566 -162 c65 -25
177 -106 220 -161 l31 -39 -29 -32 -30 -33 -25 50 c-34 67 -104 136 -172 169
-46 23 -65 27 -115 23 -72 -5 -106 -27 -137 -88 -46 -90 -24 -151 115 -317
112 -133 139 -175 158 -241 45 -154 -67 -315 -233 -338 -123 -16 -302 65 -426
194 -42 43 -42 57 1 95 19 17 20 17 50 -36 36 -64 123 -146 189 -178 175 -85
348 30 311 206 -11 52 -61 127 -165 247 -40 46 -84 109 -99 139 -32 63 -42
149 -24 204 22 66 92 131 170 156 39 13 150 3 210 -20z m-4139 -95 c62 -22
107 -64 140 -132 87 -177 2 -358 -221 -466 l-88 -43 94 -187 c52 -103 94 -190
94 -192 0 -3 -22 -16 -49 -29 l-49 -25 -232 459 -231 459 143 70 c79 39 166
77 193 85 64 17 160 18 206 1z m4895 -336 c24 -17 44 -33 44 -35 0 -3 -363
-552 -555 -839 -8 -12 -17 -10 -57 18 l-47 32 282 427 c155 235 283 427 285
427 2 0 23 -14 48 -30z m447 -318 l47 -47 -25 -240 c-14 -132 -25 -251 -25
-266 l0 -26 73 14 c119 22 278 64 341 89 l60 24 38 -37 c21 -20 36 -38 34 -40
-2 -2 -48 -11 -102 -19 -143 -21 -438 -76 -446 -83 -6 -5 -58 -463 -58 -516 0
-11 -26 -47 -58 -79 l-57 -59 -3 39 c-1 21 11 165 26 319 16 154 28 281 26
283 -7 10 -284 -55 -384 -90 -163 -56 -149 -55 -198 -5 l-43 44 68 6 c65 6
399 63 510 87 62 13 53 -22 89 363 15 158 30 287 34 287 3 0 27 -21 53 -48z
m-6748 -179 c19 -9 35 -19 35 -22 0 -3 -35 -31 -77 -61 -42 -30 -123 -100
-180 -155 l-105 -100 153 -150 152 -149 94 99 c52 55 109 119 126 143 l31 42
28 -27 29 -28 -53 -45 c-29 -24 -91 -81 -138 -127 l-85 -82 165 -166 165 -166
82 85 c45 47 119 135 165 196 l83 111 19 -40 19 -39 -203 -211 c-112 -116
-206 -211 -209 -211 -4 1 -170 162 -370 358 l-364 358 198 202 c108 111 199
202 201 202 2 0 19 -8 39 -17z m7648 -800 c221 -337 299 -458 303 -468 4 -11
-53 -73 -59 -64 -2 2 -16 38 -32 79 -22 60 -84 181 -100 199 -5 5 -45 -20
-295 -184 -268 -177 -501 -329 -517 -338 -11 -7 -76 70 -71 85 3 7 229 158
622 413 102 66 185 125 186 132 0 18 -111 153 -160 196 -24 20 -41 39 -39 42
4 3 69 33 76 35 1 0 40 -57 86 -127z m-7999 -305 c232 -138 423 -253 426 -255
8 -8 -49 -98 -61 -95 -6 1 -106 59 -221 129 -115 69 -210 124 -212 122 -14
-19 -256 -432 -256 -439 0 -5 96 -66 213 -135 116 -70 213 -128 215 -130 2 -1
-10 -23 -25 -49 -32 -53 -26 -54 -138 13 -44 26 -236 141 -428 255 l-347 208
21 36 c40 66 28 69 243 -59 109 -66 200 -118 201 -117 2 3 252 423 261 438 1
3 -87 59 -197 124 -109 65 -199 121 -199 124 0 3 12 25 26 49 18 32 30 43 42
38 8 -3 205 -119 436 -257z m8526 -614 l12 -40 -186 -224 c-102 -123 -184
-225 -182 -227 10 -11 334 -54 443 -60 l122 -6 16 -40 c9 -22 15 -41 13 -42
-2 -2 -61 7 -131 20 -70 13 -214 38 -321 55 l-193 31 -214 -80 -214 -79 -18
50 c-11 27 -16 52 -13 55 3 3 97 40 208 82 l203 77 123 149 c67 83 162 198
210 257 96 119 93 118 122 22z m-9480 -243 c0 -6 -16 -36 -35 -68 -33 -54
-100 -212 -93 -218 2 -1 212 -67 468 -145 256 -78 466 -143 467 -144 6 -5 -32
-106 -39 -106 -5 0 -213 63 -463 140 -250 77 -458 140 -464 140 -14 0 -41
-130 -48 -227 -3 -46 -9 -83 -14 -83 -15 0 -69 35 -69 45 0 6 46 160 102 343
l102 332 43 0 c24 0 43 -4 43 -9z m3982 -1140 c79 -20 212 -72 242 -94 16 -12
16 -17 0 -80 -9 -37 -20 -67 -25 -67 -5 0 -9 4 -9 8 0 5 -26 28 -57 51 -223
166 -495 187 -632 50 -104 -104 -106 -271 -4 -380 61 -66 129 -107 383 -231
182 -90 225 -115 282 -167 115 -106 164 -243 139 -393 -30 -191 -166 -331
-371 -385 -148 -38 -398 -11 -595 66 -116 45 -110 37 -85 120 12 39 24 71 27
71 3 0 28 -20 56 -46 122 -110 369 -183 521 -155 183 34 296 154 296 313 0
126 -56 220 -178 302 -38 25 -149 84 -246 130 -210 101 -297 157 -366 234 -70
78 -94 144 -94 257 0 117 25 184 99 264 74 80 186 135 310 155 59 9 232 -4
307 -23z m1723 19 c183 -27 332 -92 445 -197 39 -36 70 -71 68 -77 -2 -6 -26
-33 -55 -59 l-51 -48 -30 43 c-77 110 -206 207 -331 250 -95 32 -259 32 -352
0 -214 -74 -360 -242 -427 -491 -22 -83 -25 -116 -25 -251 0 -135 3 -167 26
-252 57 -216 181 -379 350 -462 109 -53 171 -67 292 -67 214 1 405 97 529 266
27 36 50 65 53 65 2 0 15 -7 28 -16 l25 -16 -43 -61 c-84 -120 -189 -213 -312
-274 -229 -115 -546 -101 -776 33 -130 77 -259 230 -312 370 -54 145 -61 188
-61 374 0 137 3 189 17 240 58 211 146 350 300 471 163 129 414 191 642 159z
m1634 -25 c177 -42 304 -161 367 -345 29 -84 27 -272 -4 -362 -78 -226 -273
-363 -517 -362 -162 1 -280 47 -381 148 -105 105 -148 218 -148 386 0 79 5
123 22 175 54 176 202 316 380 359 76 19 203 19 281 1z m-4884 -24 c223 -60
335 -170 366 -358 35 -214 -79 -429 -276 -522 -116 -55 -219 -74 -392 -74
l-153 0 0 -348 0 -349 -95 0 -95 0 0 841 0 841 283 -4 c248 -4 292 -8 362 -27z
m-1575 -1026 l0 -65 -682 2 -683 3 -3 63 -3 62 686 0 685 0 0 -65z m9000 0 l0
-65 -685 0 -685 0 0 65 0 65 685 0 685 0 0 -65z m-2609 -451 c11 -10 24 -34
30 -55 16 -51 -11 -107 -64 -133 -100 -49 -195 62 -142 164 9 17 17 30 18 30
1 0 20 6 41 14 44 15 86 8 117 -20z m1519 -1249 c74 -51 267 -172 428 -269
161 -98 291 -183 289 -190 -4 -12 -32 -15 -636 -51 -234 -14 -426 -26 -427
-28 -2 -1 38 -28 89 -58 51 -31 167 -102 260 -157 92 -56 216 -128 277 -160
l109 -58 -20 -33 c-11 -18 -23 -31 -27 -29 -4 2 -79 51 -167 109 -88 59 -236
153 -330 209 -93 57 -196 119 -228 138 -49 30 -66 35 -108 33 -59 -3 -61 5
-19 72 l30 47 68 1 c37 0 76 2 87 4 11 1 76 6 145 9 237 12 665 37 674 39 11
3 -525 323 -622 372 -71 35 -73 37 -60 58 8 12 18 28 22 35 4 7 13 9 19 5 7
-4 73 -48 147 -98z m-7985 -29 c171 -45 323 -202 370 -381 23 -89 17 -238 -11
-273 -6 -8 -84 23 -81 32 33 89 39 123 35 199 -6 145 -75 249 -205 309 -61 29
-77 32 -158 32 -108 -1 -187 -25 -290 -89 -225 -140 -307 -365 -206 -564 61
-119 183 -205 311 -219 50 -5 65 -11 68 -24 3 -15 -4 -18 -50 -18 -117 0 -250
61 -334 154 -97 107 -140 230 -131 374 4 73 11 96 46 167 68 137 218 258 372
299 69 19 199 20 264 2z m7351 -952 c78 -20 165 -71 235 -139 228 -219 234
-540 14 -760 -172 -172 -400 -213 -599 -107 -77 40 -206 174 -245 252 -106
218 -57 466 126 629 137 122 303 166 469 125z m-6525 -40 c180 -54 329 -197
380 -366 17 -56 21 -88 17 -167 -3 -93 -6 -104 -47 -186 -96 -195 -290 -325
-483 -325 -259 0 -503 208 -538 458 -35 255 159 530 418 591 63 15 194 12 253
-5z m5406 -691 c289 -491 449 -764 465 -790 l18 -31 -47 -26 c-38 -22 -49 -24
-59 -14 -6 7 -116 191 -244 408 -128 217 -241 409 -252 427 l-19 32 48 30 c26
17 49 31 49 31 1 0 20 -30 41 -67z m-4456 15 c22 -12 39 -26 39 -31 0 -5 -56
-114 -124 -241 -231 -430 -326 -610 -326 -616 0 -12 172 -87 263 -115 l89 -27
-28 -29 c-15 -16 -34 -29 -42 -29 -8 0 -56 22 -106 49 -50 26 -139 74 -198
105 l-107 57 28 52 c32 57 408 762 435 815 20 38 26 39 77 10z m4072 -217 c10
-17 14 -31 9 -31 -56 0 -276 -52 -295 -70 -5 -4 69 -209 163 -455 94 -247 169
-453 167 -459 -6 -15 -95 -47 -101 -37 -5 8 -41 102 -239 625 -56 147 -108
271 -115 273 -18 7 -81 -22 -180 -84 -46 -29 -88 -53 -92 -53 -14 0 -21 74 -7
84 33 22 653 252 662 245 6 -4 18 -21 28 -38z m-3349 -117 c29 -10 45 -21 42
-29 -2 -7 -59 -190 -126 -406 -67 -217 -130 -421 -141 -453 -15 -47 -16 -61
-7 -68 22 -13 148 -39 243 -50 125 -14 121 -12 96 -51 -11 -17 -26 -33 -33
-35 -12 -2 -426 122 -435 132 -2 2 44 158 102 347 173 561 196 629 204 629 4
0 29 -7 55 -16z m2288 -213 c63 -22 146 -74 155 -98 3 -8 -7 -27 -22 -43 l-28
-30 -49 46 c-72 67 -160 105 -245 106 -85 0 -133 -12 -203 -54 -63 -38 -121
-110 -152 -188 -29 -75 -36 -247 -14 -343 35 -148 114 -255 234 -314 72 -36
81 -38 172 -38 83 0 103 4 154 28 80 37 136 85 181 154 21 32 39 59 40 61 1 1
9 0 18 -4 43 -16 -104 -204 -201 -257 -101 -55 -265 -73 -378 -43 -120 32
-244 136 -298 250 -63 134 -79 322 -36 446 48 143 144 249 275 305 114 48 285
55 397 16z m-1287 -11 c147 -16 268 -30 270 -30 1 0 5 -18 7 -40 2 -26 -1 -40
-8 -40 -7 0 -54 11 -106 25 -95 25 -242 51 -313 57 l-40 3 -22 -185 c-12 -102
-22 -197 -22 -211 -1 -25 0 -26 107 -37 59 -7 142 -12 185 -12 l77 0 0 -40 c0
-22 -2 -40 -4 -40 -3 0 -33 7 -68 15 -56 13 -300 47 -304 42 -7 -8 -51 -453
-46 -459 13 -13 296 -28 399 -22 l105 7 -21 -41 c-12 -23 -26 -42 -33 -42 -38
0 -564 63 -569 69 -4 4 103 994 110 1009 2 4 33 2 296 -28z"/>
<path d="M6950 11877 c0 -7 -9 -113 -20 -237 -11 -123 -18 -226 -15 -228 9 -9
93 -21 150 -21 101 -1 176 44 220 130 64 126 28 262 -84 318 -67 34 -251 61
-251 38z"/>
<path d="M4430 11341 c-14 -5 -57 -24 -96 -44 l-71 -36 112 -223 c62 -122 118
-224 123 -226 18 -6 136 59 175 97 56 52 77 99 77 168 0 100 -71 216 -155 254
-41 19 -120 23 -165 10z"/>
<path d="M9065 7401 c-88 -23 -179 -98 -228 -189 -41 -76 -58 -155 -58 -271 1
-158 40 -268 129 -363 174 -186 474 -136 584 98 123 261 38 592 -179 699 -47
23 -74 29 -138 31 -44 2 -93 0 -110 -5z"/>
<path d="M3970 6985 c0 -386 1 -416 18 -423 9 -4 73 -6 142 -6 96 1 140 6 187
22 186 60 273 187 273 398 0 137 -25 216 -91 288 -92 100 -196 136 -401 136
l-128 0 0 -415z"/>
<path d="M9868 3658 c-201 -26 -348 -228 -310 -429 41 -222 260 -440 468 -467
201 -26 371 87 420 278 28 111 4 226 -75 347 -122 189 -319 295 -503 271z"/>
<path d="M3410 3618 c-119 -43 -220 -125 -300 -244 -127 -190 -120 -405 17
-542 87 -87 208 -126 326 -104 103 19 181 65 278 161 132 132 187 262 176 414
-9 130 -93 248 -217 305 -80 37 -192 41 -280 10z"/>
</g>
</svg>
